<svg xmlns="http://www.w3.org/2000/svg" width="24" height="24" viewBox="0 0 24 24">
  <g id="baseline-attach_file-24px" transform="translate(-64 -7)">
    <rect id="Прямоугольник_16881" data-name="Прямоугольник 16881" width="24" height="24" transform="translate(64 7)" fill="none" opacity="0"/>
    <path id="Контур_5682" data-name="Контур 5682" d="M17946.34-11804.992a5.481,5.481,0,0,1-2.17-3.132,5.5,5.5,0,0,1,.371-3.731,1.3,1.3,0,0,1,.178-.38l1.086-1.545a1.216,1.216,0,0,1,1.012-.544.8.8,0,0,1,.1,0,1.226,1.226,0,0,1,1.018.709,1.226,1.226,0,0,1-.129,1.229l-.865,1.234-.047.078a3.047,3.047,0,0,0,.848,4.083,3.014,3.014,0,0,0,1.742.549,3.032,3.032,0,0,0,2.391-1.147l.053-.068.871-1.244a1.23,1.23,0,0,1,1-.521c.031,0,.068,0,.1,0a1.233,1.233,0,0,1,1,.7,1.206,1.206,0,0,1-.111,1.212l-1.084,1.555a1.225,1.225,0,0,1-.3.3,5.523,5.523,0,0,1-3.924,1.65A5.443,5.443,0,0,1,17946.34-11804.992Zm3.307-3.662a1.222,1.222,0,0,1-1-.7,1.239,1.239,0,0,1,.105-1.217l2.988-4.267a1.223,1.223,0,0,1,.789-.5,1.226,1.226,0,0,1,.215-.018,1.168,1.168,0,0,1,.693.219,1.188,1.188,0,0,1,.5.786,1.233,1.233,0,0,1-.2.911l-2.986,4.266a1.229,1.229,0,0,1-1,.517A1,1,0,0,1,17949.646-11808.654Zm5.943-1.024a1.224,1.224,0,0,1-1.018-.714,1.219,1.219,0,0,1,.127-1.226l.811-1.157a3.049,3.049,0,0,0-.76-4.22,3.024,3.024,0,0,0-1.746-.549,3.057,3.057,0,0,0-2.484,1.28l-.812,1.161a1.223,1.223,0,0,1-1,.518,1.192,1.192,0,0,1-.7-.22,1.208,1.208,0,0,1-.5-.787,1.223,1.223,0,0,1,.2-.909l1.088-1.551a1.32,1.32,0,0,1,.293-.3,5.523,5.523,0,0,1,3.928-1.651,5.444,5.444,0,0,1,3.143.993,5.463,5.463,0,0,1,2.17,3.128,5.481,5.481,0,0,1-.371,3.735,1.415,1.415,0,0,1-.178.379l-1.086,1.546a1.206,1.206,0,0,1-1.01.54Z" transform="translate(-17875.25 11831)" fill="#111"/>
  </g>
</svg>
