<svg xmlns="http://www.w3.org/2000/svg" width="24" height="24" viewBox="0 0 24 24">
  <g id="Layer_2" data-name="Layer 2" transform="translate(0 -0.476)">
    <g id="invisible_box" data-name="invisible box" transform="translate(0 0.476)">
      <rect id="Прямоугольник_316" data-name="Прямоугольник 316" width="24" height="24" fill="none"/>
    </g>
    <g id="icons_Q2" data-name="icons Q2" transform="translate(6.143 9.119)">
      <path id="Контур_2915" data-name="Контур 2915" d="M11.757,15.961s-.687-.016-.945,0a.845.845,0,0,0-.637.346.833.833,0,0,0,.088,1.118l5.266,4.928a.868.868,0,0,0,1.229,0l5.266-4.928a.833.833,0,0,0,.088-1.118.845.845,0,0,0-.637-.346c-.258-.016-1.057,0-1.057,0Z" transform="translate(-10.001 -15.954)"/>
    </g>
  </g>
</svg>
