<svg id="baseline-format_align_right-24px" xmlns="http://www.w3.org/2000/svg" width="24" height="24" viewBox="0 0 24 24">
  <path id="Контур_1248" data-name="Контур 1248" d="M0,0H24V24H0Z" fill="none"/>
  <path id="Контур_1245" data-name="Контур 1245" d="M684.37,382.283h10a1,1,0,0,1,1,1h0a1,1,0,0,1-1,1h-10a1,1,0,0,1-1-1h0A1,1,0,0,1,684.37,382.283Zm0-8h10a1,1,0,0,1,1,1h0a1,1,0,0,1-1,1h-10a1,1,0,0,1-1-1h0A1,1,0,0,1,684.37,374.283Zm10,6h-16a1,1,0,0,1-1-1h0a1,1,0,0,1,1-1h16a1,1,0,0,1,1,1h0A1,1,0,0,1,694.37,380.283Zm0,8h-16a1,1,0,0,1-1-1h0a1,1,0,0,1,1-1h16a1,1,0,0,1,1,1h0A1,1,0,0,1,694.37,388.283Zm1-17h0a1,1,0,0,1-1,1h-16a1,1,0,0,1-1-1h0a1,1,0,0,1,1-1h16A1,1,0,0,1,695.37,371.283Z" transform="translate(-674.369 -367.285)" fill="currentColor"/>
</svg>
