<svg id="baseline-format_align_center-24px" xmlns="http://www.w3.org/2000/svg" width="24" height="24" viewBox="0 0 24 24">
  <path id="Контур_1242" data-name="Контур 1242" d="M0,0H24V24H0Z" fill="none"/>
  <path id="Контур_1241" data-name="Контур 1241" d="M678.4,388.062h0a1,1,0,0,0,1,1h8a1,1,0,0,0,1-1h0a1,1,0,0,0-1-1h-8A1,1,0,0,0,678.4,388.062Zm-3,5h16a1,1,0,0,0,1-1h0a1,1,0,0,0-1-1h-16a1,1,0,0,0-1,1h0A1,1,0,0,0,675.4,393.063Zm0-8h16a1,1,0,0,0,1-1h0a1,1,0,0,0-1-1h-16a1,1,0,0,0-1,1h0A1,1,0,0,0,675.4,385.063Zm3-5h0a1,1,0,0,0,1,1h8a1,1,0,0,0,1-1h0a1,1,0,0,0-1-1h-8A1,1,0,0,0,678.4,380.062Zm-4-4h0a1,1,0,0,0,1,1h16a1,1,0,0,0,1-1h0a1,1,0,0,0-1-1h-16A1,1,0,0,0,674.4,376.062Z" transform="translate(-671.396 -372.064)" fill="#111"/>
</svg>
