<svg id="baseline-format_align_justify-24px" xmlns="http://www.w3.org/2000/svg" width="24" height="24" viewBox="0 0 24 24">
  <path id="Контур_1244" data-name="Контур 1244" d="M0,0H24V24H0Z" fill="none"/>
  <rect id="Прямоугольник_16888" data-name="Прямоугольник 16888" width="18" height="2" rx="1" transform="translate(3.336 18.997)" fill="#111"/>
  <rect id="Прямоугольник_16889" data-name="Прямоугольник 16889" width="18" height="2" rx="1" transform="translate(3.336 14.997)" fill="#111"/>
  <rect id="Прямоугольник_16890" data-name="Прямоугольник 16890" width="18" height="2" rx="1" transform="translate(3.336 10.997)" fill="#111"/>
  <rect id="Прямоугольник_16891" data-name="Прямоугольник 16891" width="18" height="2" rx="1" transform="translate(3.336 6.997)" fill="#111"/>
  <path id="Контур_5688" data-name="Контур 5688" d="M678.37,370.283a1,1,0,0,0-1,1h0a1,1,0,0,0,1,1h16a1,1,0,0,0,1-1h0a1,1,0,0,0-1-1" transform="translate(-674.035 -367.285)" fill="#111"/>
</svg>
