<svg id="baseline-format_align_left-24px" xmlns="http://www.w3.org/2000/svg" width="24" height="24" viewBox="0 0 24 24">
  <path id="Контур_1246" data-name="Контур 1246" d="M0,0H24V24H0Z" fill="none"/>
  <path id="Контур_1245" data-name="Контур 1245" d="M688.37,382.283h-10a1,1,0,0,0-1,1h0a1,1,0,0,0,1,1h10a1,1,0,0,0,1-1h0A1,1,0,0,0,688.37,382.283Zm0-8h-10a1,1,0,0,0-1,1h0a1,1,0,0,0,1,1h10a1,1,0,0,0,1-1h0A1,1,0,0,0,688.37,374.283Zm-10,6h16a1,1,0,0,0,1-1h0a1,1,0,0,0-1-1h-16a1,1,0,0,0-1,1h0A1,1,0,0,0,678.37,380.283Zm0,8h16a1,1,0,0,0,1-1h0a1,1,0,0,0-1-1h-16a1,1,0,0,0-1,1h0A1,1,0,0,0,678.37,388.283Zm-1-17h0a1,1,0,0,0,1,1h16a1,1,0,0,0,1-1h0a1,1,0,0,0-1-1h-16A1,1,0,0,0,677.37,371.283Z" transform="translate(-674.703 -367.285)" fill="currentColor"/>
</svg>
