<svg xmlns="http://www.w3.org/2000/svg" width="24" height="24" viewBox="0 0 24 24">
  <g id="List" transform="translate(-96 -7)">
    <rect id="Прямоугольник_16882" data-name="Прямоугольник 16882" width="24" height="24" transform="translate(96 7)" fill="none" opacity="0"/>
    <path id="Контур_5683" data-name="Контур 5683" d="M17936-11809.469a2.137,2.137,0,0,1,2.137-2.131,2.132,2.132,0,0,1,2.131,2.131,2.136,2.136,0,0,1-2.131,2.136A2.141,2.141,0,0,1,17936-11809.469Zm6.8,1.2a1.206,1.206,0,0,1-1.2-1.2,1.2,1.2,0,0,1,1.2-1.2h8.861a1.2,1.2,0,0,1,1.2,1.2,1.206,1.206,0,0,1-1.2,1.2Zm-6.8-9.6a2.137,2.137,0,0,1,2.137-2.131,2.132,2.132,0,0,1,2.131,2.131,2.136,2.136,0,0,1-2.131,2.136A2.141,2.141,0,0,1,17936-11817.867Zm6.8,1.2a1.2,1.2,0,0,1-1.2-1.2,1.2,1.2,0,0,1,1.2-1.2h8.861a1.2,1.2,0,0,1,1.2,1.2,1.2,1.2,0,0,1-1.2,1.2Z" transform="translate(-17836.434 11832.667)" fill="currentColor"/>
  </g>
</svg>
