<svg id="Layer_2" data-name="Layer 2" xmlns="http://www.w3.org/2000/svg" width="16" height="16" viewBox="0 0 16 16">
  <g id="invisible_box" data-name="invisible box">
    <rect id="Прямоугольник_368" data-name="Прямоугольник 368" width="16" height="16" fill="none"/>
  </g>
  <g id="icons_Q2" data-name="icons Q2" transform="translate(0.663 0.655)">
    <path id="Контур_2923" data-name="Контур 2923" d="M15.918,3.973H12.936V2.681a.7.7,0,0,0-.563-.7.663.663,0,0,0-.762.663V3.973H6.971V2.681a.7.7,0,0,0-.563-.7.663.663,0,0,0-.762.663V3.973H2.663A.663.663,0,0,0,2,4.636V6.624H16.581V4.636A.663.663,0,0,0,15.918,3.973ZM2,7.95V15.24a.663.663,0,0,0,.663.663H15.918a.663.663,0,0,0,.663-.663V7.95Zm11.93,4.639a.663.663,0,0,1-.663.663H11.942a.663.663,0,0,1-.663-.663V11.264a.663.663,0,0,1,.663-.663h1.326a.663.663,0,0,1,.663.663Z" transform="translate(-2 -1.977)" fill="currentColor"/>
  </g>
</svg>
