<svg xmlns="http://www.w3.org/2000/svg" width="24" height="24" viewBox="0 0 24 24">
  <g id="judge" transform="translate(-684 -572)">
    <path id="Vector" d="M0,0H3" transform="translate(687 580)" fill="none" stroke="currentColor" stroke-linecap="round" stroke-linejoin="round" stroke-width="2"/>
    <path id="Vector-2" data-name="Vector" d="M0,0H24V24H0Z" transform="translate(684 572)" fill="none" opacity="0"/>
    <g id="Сгруппировать_4461" data-name="Сгруппировать 4461" transform="translate(16.603 200.437)">
      <path id="Vector-3" data-name="Vector" d="M683.4,394.561v-9" transform="translate(-1.003 -1.999)" fill="none" stroke="currentColor" stroke-linecap="round" stroke-linejoin="round" stroke-width="2"/>
      <path id="Vector-2-2" data-name="Vector-2" d="M682.405,383.563h-4.293a1.661,1.661,0,0,1-1.716-1.6v-4.8a1.661,1.661,0,0,1,1.714-1.6h0l8.569,0a1.659,1.659,0,0,1,1.716,1.6v4.8a1.659,1.659,0,0,1-1.713,1.6h0Z" fill="none" stroke="currentColor" stroke-linecap="round" stroke-linejoin="round" stroke-width="2"/>
      <path id="Vector-3-2" data-name="Vector-3" d="M681.379,375.563v8" transform="translate(-1)" fill="none" stroke="currentColor" stroke-linecap="round" stroke-linejoin="round" stroke-width="2"/>
    </g>
    <path id="Vector-3-3" data-name="Vector-3" d="M681.379,375.563v17" transform="translate(5.621 200.437)" fill="none" stroke="currentColor" stroke-linecap="round" stroke-linejoin="round" stroke-width="2"/>
  </g>
</svg>
