<svg xmlns="http://www.w3.org/2000/svg" width="24" height="24" viewBox="0 0 24 24">
  <g id="message-danger" transform="translate(-620 -252)" >
    <path id="Vector" d="M15,16H11L6.55,18.96A1,1,0,0,1,5,18.13V16a4.724,4.724,0,0,1-5-5V5A4.724,4.724,0,0,1,5,0H15a4.724,4.724,0,0,1,5,5v6A4.724,4.724,0,0,1,15,16Z" transform="translate(622 254.43)" fill="none" stroke="currentColor" stroke-linecap="round" stroke-linejoin="round" stroke-width="2"/>
    <path id="Vector-2" data-name="Vector" d="M0,0H24V24H0Z" transform="translate(620 252)" fill="none" opacity="0"/>
    <path id="Vector-3" data-name="Vector" d="M0,0V5" transform="translate(632 258)" fill="none" stroke="currentColor" stroke-linecap="round" stroke-linejoin="round" stroke-width="2"/>
    <path id="Vector-4" data-name="Vector" d="M0,0H.009" transform="translate(631.994 266)" fill="none" stroke="currentColor" stroke-linecap="round" stroke-linejoin="round" stroke-width="2"/>
  </g>
</svg>
