<svg id="baseline-format_list_numbered-24px" xmlns="http://www.w3.org/2000/svg" width="24" height="24" viewBox="0 0 24 24">
  <path id="Контур_1272" data-name="Контур 1272" d="M0,0H24V24H0Z" fill="none"/>
  <g id="Сгруппировать_4507" data-name="Сгруппировать 4507" transform="translate(-1 1)">
    <path id="Контур_1271" data-name="Контур 1271" d="M2,11.25H4.25L2,13.875V15H5.75V13.75H3.5l2.25-2.625V10H2Z" transform="translate(2 2.699)" fill="currentColor"/>
    <path id="Контур_5685" data-name="Контур 5685" d="M3.25,9H4.5V4H2V5.25H3.25Z" transform="translate(2 0.299)" fill="currentColor"/>
    <path id="Контур_5684" data-name="Контур 5684" d="M17942.8-11816.669a1.2,1.2,0,0,1-1.2-1.2,1.2,1.2,0,0,1,1.2-1.2h8.861a1.2,1.2,0,0,1,1.2,1.2,1.2,1.2,0,0,1-1.2,1.2Z" transform="translate(-17930.867 11824.666)" fill="currentColor"/>
    <path id="Контур_5686" data-name="Контур 5686" d="M17942.8-11808.266a1.206,1.206,0,0,1-1.2-1.2,1.2,1.2,0,0,1,1.2-1.2h8.861a1.2,1.2,0,0,1,1.2,1.2,1.206,1.206,0,0,1-1.2,1.2Z" transform="translate(-17930.867 11824.666)" fill="currentColor"/>
  </g>
</svg>
