<svg id="Layer_2" data-name="Layer 2" xmlns="http://www.w3.org/2000/svg" width="16" height="16" viewBox="0 0 16 16">
  <g id="invisible_box" data-name="invisible box">
    <rect id="Прямоугольник_374" data-name="Прямоугольник 374" width="16" height="16" fill="none"/>
    <rect id="Прямоугольник_375" data-name="Прямоугольник 375" width="16" height="16" fill="none"/>
    <rect id="Прямоугольник_376" data-name="Прямоугольник 376" width="16" height="16" fill="none"/>
  </g>
  <g id="icons_Q2" data-name="icons Q2" transform="translate(4 1.333)">
    <path id="Контур_2929" data-name="Контур 2929" d="M-7124.533-563.666h-6.934a.574.574,0,0,1-.533-.606v-12.121a.574.574,0,0,1,.533-.606h6.934a.573.573,0,0,1,.532.606v12.121A.573.573,0,0,1-7124.533-563.666ZM-7128-566.5a.834.834,0,0,0-.833.834.834.834,0,0,0,.833.833.834.834,0,0,0,.834-.833A.835.835,0,0,0-7128-566.5Z" transform="translate(7132 577)" fill="currentColor"/>
  </g>
</svg>
