<svg xmlns="http://www.w3.org/2000/svg" width="24" height="24" viewBox="0 0 24 24">
  <g id="Quote" transform="translate(-192 -7)">
    <rect id="Прямоугольник_16884" data-name="Прямоугольник 16884" width="24" height="24" transform="translate(192 7)" fill="none" opacity="0"/>
    <path id="Контур_5677" data-name="Контур 5677" d="M326.576-19.5a6.067,6.067,0,0,1,5.652-5.981l.035.625c-2.47.689-3.491,2.779-3.616,4.961h3.528c.515,0,.467.4.467.92v4.21c0,.517-.418.469-.933.469h-4.667c-.515,0-.467-.419-.467-.936V-19.5Zm7.467,0a6.067,6.067,0,0,1,5.652-5.981l.035.625c-2.47.69-3.491,2.78-3.615,4.961h3.527c.515,0,.467.4.467.92v4.21c0,.517-.418.469-.933.469h-4.667c-.515,0-.467-.419-.467-.936V-19.5Z" transform="translate(-129.5 39.51)" fill="#111" fill-rule="evenodd"/>
  </g>
</svg>
