<?xml version="1.0" encoding="UTF-8"?>
<svg fill="currentColor" stroke="currentColor" xmlns="http://www.w3.org/2000/svg" xmlns:xlink="http://www.w3.org/1999/xlink" width="24px" height="24px" viewBox="0 0 24 24" version="1.1">
<g id="surface1">
<path fill="currentColor" stroke="currentColor" style=" stroke:none;fill-rule:nonzero;fill:rgb(0%,0%,0%);fill-opacity:1;" d="M 2.453125 20.65625 C 2.375 20.65625 2.292969 20.644531 2.21875 20.617188 C 1.898438 20.511719 1.6875 20.207031 1.703125 19.867188 C 1.703125 19.753906 2.476562 8.863281 13.394531 8.011719 L 13.394531 4.09375 C 13.394531 3.789062 13.578125 3.515625 13.863281 3.398438 C 14.144531 3.285156 14.46875 3.351562 14.679688 3.570312 L 22.082031 11.128906 C 22.371094 11.421875 22.371094 11.886719 22.082031 12.179688 L 14.679688 19.738281 C 14.46875 19.957031 14.144531 20.023438 13.863281 19.910156 C 13.578125 19.792969 13.394531 19.519531 13.394531 19.214844 L 13.394531 15.375 C 6.105469 15.652344 3.117188 20.25 3.085938 20.304688 C 2.949219 20.523438 2.710938 20.65625 2.453125 20.65625 Z M 14.894531 5.933594 L 14.894531 8.710938 C 14.894531 9.117188 14.574219 9.445312 14.171875 9.460938 C 7.105469 9.71875 4.578125 14.425781 3.671875 17.453125 C 5.546875 15.832031 8.886719 13.851562 14.101562 13.851562 L 14.132812 13.851562 C 14.546875 13.851562 14.882812 14.1875 14.882812 14.601562 L 14.882812 17.382812 L 20.507812 11.660156 Z M 14.894531 5.933594 "/>
</g>
</svg>
