<svg id="Layer_2" data-name="Layer 2" xmlns="http://www.w3.org/2000/svg" width="16" height="16" viewBox="0 0 16 16">
  <g id="invisible_box" data-name="invisible box">
    <rect id="Прямоугольник_371" data-name="Прямоугольник 371" width="16" height="16" fill="none"/>
  </g>
  <g id="icons_Q2" data-name="icons Q2" transform="translate(0.677 0.676)">
    <path id="Контур_2927" data-name="Контур 2927" d="M9.442,2a7.408,7.408,0,1,0,5.272,2.17A7.442,7.442,0,0,0,9.442,2ZM13.4,11.809a.71.71,0,0,1-.575.338.643.643,0,0,1-.338-.1L8.765,9.813V6.059a.676.676,0,1,1,1.353,0v3.01L13.162,10.9a.643.643,0,0,1,.237.913Z" transform="translate(-2 -2)" fill="currentColor"/>
  </g>
</svg>
